# xmcd
#
# Track frame offsets:
#	150
#	15856
#	36514
#	62460
#	81823
#	101847
#	128747
#	148249
#	163739
#	180280
#	199058
#	226459
#	256981
#	279827
#	302352
#
# Disc length: 4186 seconds
#
# Revision: 16
# Processed by: cddbd v1.5.2PL0 Copyright (c) Steve Scherf et al.
# Submitted via: Jack! The Knife 20 Magnifico
#
DISCID=bf10580f
DTITLE=Yngwie Malmsteen - Attack!!
DYEAR=2002
DGENRE=Metal
TTITLE0=Razor Eater
TTITLE1=Rise Up
TTITLE2=Valley Of Kings
TTITLE3=Ship Of Fools
TTITLE4=Attack!!
TTITLE5=Baroque and Roll
TTITLE6=Stronghold
TTITLE7=Mad Dog
TTITLE8=In The Name Of God
TTITLE9=Freedom Isn't Free
TTITLE10=Majestic Blue
TTITLE11=Valhalla
TTITLE12=Touch The Sky
TTITLE13=Iron Clad
TTITLE14=Air
EXTD=Yngwie Malmsteen
EXTT0=Yngwie Malmsteen
EXTT1=Yngwie Malmsteen
EXTT2=Yngwie Malmsteen
EXTT3=Yngwie Malmsteen
EXTT4=Yngwie Malmsteen
EXTT5=Yngwie Malmsteen
EXTT6=Yngwie Malmsteen
EXTT7=Yngwie Malmsteen
EXTT8=Yngwie Malmsteen
EXTT9=Yngwie Malmsteen
EXTT10=Yngwie Malmsteen
EXTT11=Yngwie Malmsteen
EXTT12=Yngwie Malmsteen
EXTT13=Yngwie Malmsteen
EXTT14=Malmsteen, Bach
PLAYORDER=
